<svg width="1068" height="350" viewBox="0 0 1068 350" fill="none" xmlns="http://www.w3.org/2000/svg">
<path d="M471 189.23C471 199.211 475.02 207.966 483.06 215.146C491.101 222.325 501.238 226.002 513.474 226.002C524.835 226.002 534.274 223.025 541.79 217.072C549.305 210.943 553.675 203.238 554.549 193.608C556.472 175.922 545.81 162.439 522.038 156.135L506.657 152.108C495.995 149.306 490.576 144.053 490.576 136.348C490.576 126.542 500.015 119.713 511.376 119.713C523.961 119.713 532.351 126.892 532.351 137.924H550.879C550.879 127.068 547.208 118.487 539.692 112.008C532.351 105.53 523.087 102.203 511.726 102.203C500.889 102.203 491.625 105.53 483.76 112.008C475.894 118.487 472.049 126.717 472.049 136.698C472.049 152.983 482.012 163.665 501.938 169.093L517.144 172.945C530.428 176.097 536.721 182.576 536.196 192.557C534.798 201.838 526.932 209.017 513.474 209.017C506.657 209.017 500.889 207.091 496.519 203.063C492.149 199.036 489.702 194.308 489.528 189.23H471Z" fill="#202124"/>
<path d="M629.592 186.428C629.592 201.662 620.503 208.492 608.618 208.492C598.655 208.492 591.663 201.137 591.663 188.004V142.477H573.66V190.105C573.485 213.044 585.196 226.002 605.297 226.002C614.56 226.002 625.223 220.924 629.592 212.344V224.251H647.596V142.477H629.592V186.428Z" fill="#202124"/>
<path d="M672.507 142.477V264H690.51V212.519C695.404 221.099 706.067 226.002 717.777 226.002C729.139 226.002 738.577 222.15 746.443 214.27C754.308 206.39 758.329 196.234 758.329 183.451C758.329 170.844 754.308 160.513 746.443 152.633C738.577 144.753 729.139 140.726 717.777 140.726C706.591 140.726 695.404 145.979 690.51 154.559V142.477H672.507ZM690.685 183.802C690.685 176.097 693.132 169.968 697.852 165.241C702.746 160.513 708.688 158.236 715.505 158.236C722.322 158.236 728.09 160.688 732.809 165.416C737.529 170.143 739.976 176.272 739.976 183.802C739.976 198.511 729.488 208.667 715.505 208.667C708.863 208.667 703.095 206.39 698.026 202.013C693.132 197.46 690.685 191.331 690.685 183.802Z" fill="#202124"/>
<path d="M856.113 183.101C856.113 170.319 852.268 160.162 844.577 152.458C836.887 144.578 827.098 140.726 815.213 140.726C803.327 140.726 793.364 144.578 785.324 152.458C777.284 160.162 773.263 170.319 773.263 183.101C773.263 195.884 777.284 206.215 785.324 214.095C793.364 221.975 803.327 226.002 815.213 226.002C831.468 226.002 845.976 218.823 852.967 204.989L838.285 198.511C834.09 206.04 825.351 210.243 816.087 210.243C802.803 210.243 792.665 202.363 791.092 189.755H855.939C856.113 188.53 856.113 186.428 856.113 183.101ZM791.092 176.622C792.665 164.19 802.453 156.485 815.213 156.485C827.623 156.485 836.887 164.015 838.46 176.622H791.092Z" fill="#202124"/>
<path d="M893.122 194.833C893.122 171.895 900.289 157.711 914.971 157.711C919.341 157.711 923.361 158.586 927.031 160.513L930.003 143.878C926.857 141.776 921.962 140.726 915.495 140.726C904.484 140.726 897.142 147.555 893.122 161.213V142.477H875.119V224.251H893.122V194.833Z" fill="#202124"/>
<path d="M962.761 224.251V142.477H944.932V224.251H962.761ZM953.846 98C947.379 98 941.786 103.078 941.786 109.382C941.786 115.686 947.379 120.764 953.846 120.764C960.663 120.764 965.732 115.861 965.732 109.382C965.732 102.903 960.663 98 953.846 98Z" fill="#202124"/>
<path d="M1025.18 208.492C1018.36 208.492 1012.42 206.215 1007.7 201.487C1002.98 196.759 1000.53 190.631 1000.53 183.101C1000.53 175.747 1002.98 169.793 1007.7 165.241C1012.42 160.688 1018.36 158.411 1025.18 158.411C1039.16 158.411 1050 168.392 1050 183.101C1050 190.631 1047.55 196.759 1042.83 201.487C1038.11 206.215 1032.17 208.492 1025.18 208.492ZM1025.18 140.726C1013.29 140.726 1003.15 144.578 994.938 152.458C986.723 160.338 982.703 170.494 982.703 183.101C982.703 195.709 986.723 206.04 994.938 214.095C1003.15 221.975 1013.29 226.002 1025.18 226.002C1037.06 226.002 1047.2 221.975 1055.42 214.095C1063.81 206.04 1068 195.709 1068 183.101C1068 170.494 1063.81 160.338 1055.59 152.458C1047.37 144.578 1037.24 140.726 1025.18 140.726Z" fill="#202124"/>
<path fill-rule="evenodd" clip-rule="evenodd" d="M140 1.90735e-06C62.6801 1.90735e-06 0 62.6801 0 140V210C0 287.32 62.6801 350 140 350H210C287.32 350 350 287.32 350 210V140C350 62.6801 287.32 1.90735e-06 210 1.90735e-06H140ZM231 87.2888L138.863 176.825C124.768 163.117 124.768 140.97 138.863 127.263L180.036 87.2213C194.131 73.5816 216.905 73.5816 231 87.2888ZM136.571 272.167L203.157 207.413C217.252 193.705 217.252 171.558 203.157 157.851L136.571 222.605C122.476 236.313 122.476 258.46 136.571 272.167ZM219.335 182.632C219.335 180.606 219.127 178.58 218.849 176.622C224.473 189.451 221.904 204.779 211.212 215.245L144.625 280C143.237 278.65 141.987 277.164 140.876 275.679L207.185 211.194C215.031 203.564 219.335 193.435 219.335 182.632ZM197.117 156.095L167.608 184.86L144.973 178.513L174.829 149.545L197.117 156.095Z" fill="#1967D2"/>
</svg>
